# xmcd
#
# Track frame offsets:
#	150
#	20674
#	36190
#	47923
#	70725
#	90506
#	108685
#	124285
#	150365
#	169734
#	185267
#	194943
#	207754
#
# Disc length: 3067 seconds
#
# Revision: 0
# Processed by: cddbd v1.5.2PL0 Copyright (c) Steve Scherf et al.
# Submitted via: dBpowerAMP V4.0
#
DISCID=b60bf90d
DTITLE=Rick Holmstrom - Late In The Night
DYEAR=2007
DGENRE=Blues
TTITLE0=Peculiar Hop
TTITLE1=I'm Leaving
TTITLE2=One Last Chance
TTITLE3=77 Red V8
TTITLE4=Tutwiler
TTITLE5=Better Way
TTITLE6=On The Vine
TTITLE7=Descanso
TTITLE8=Dig Myself A Hole
TTITLE9=Rainy Day Women #12 and 35
TTITLE10=Hey Johnny
TTITLE11=Wham-O
TTITLE12=In The Night
EXTD=
EXTT0=
EXTT1=
EXTT2=
EXTT3=
EXTT4=
EXTT5=
EXTT6=
EXTT7=
EXTT8=
EXTT9=
EXTT10=
EXTT11=
EXTT12=
PLAYORDER=
